<?xml version="1.0" encoding="UTF-8" standalone="no"?>
<svg
   xmlns:dc="http://purl.org/dc/elements/1.1/"
   xmlns:cc="http://creativecommons.org/ns#"
   xmlns:rdf="http://www.w3.org/1999/02/22-rdf-syntax-ns#"
   xmlns:svg="http://www.w3.org/2000/svg"
   xmlns="http://www.w3.org/2000/svg"
   xmlns:sodipodi="http://sodipodi.sourceforge.net/DTD/sodipodi-0.dtd"
   xmlns:inkscape="http://www.inkscape.org/namespaces/inkscape"
   version="1.1"
   id="Capa_1"
   x="0px"
   y="0px"
   width="48"
   height="38.13168"
   viewBox="0 0 47.999999 38.131679"
   xml:space="preserve"
   sodipodi:docname="vol-off-48.svg"
   inkscape:version="1.0.1 (c497b03c, 2020-09-10)"><metadata
   id="metadata7608"><rdf:RDF><cc:Work
       rdf:about=""><dc:format>image/svg+xml</dc:format><dc:type
         rdf:resource="http://purl.org/dc/dcmitype/StillImage" /><dc:title></dc:title></cc:Work></rdf:RDF></metadata><defs
   id="defs7606"><inkscape:path-effect
     effect="powerstroke"
     id="path-effect8777"
     is_visible="true"
     lpeversion="1"
     offset_points="3,0.5"
     sort_points="true"
     interpolator_type="CubicBezierJohan"
     interpolator_beta="0.2"
     start_linecap_type="zerowidth"
     linejoin_type="extrp_arc"
     miter_limit="4"
     scale_width="1"
     end_linecap_type="zerowidth" /></defs><sodipodi:namedview
   pagecolor="#ffffff"
   bordercolor="#666666"
   borderopacity="1"
   objecttolerance="10"
   gridtolerance="10"
   guidetolerance="10"
   inkscape:pageopacity="0"
   inkscape:pageshadow="2"
   inkscape:window-width="1623"
   inkscape:window-height="995"
   id="namedview7604"
   showgrid="false"
   inkscape:zoom="4.2355696"
   inkscape:cx="24.000001"
   inkscape:cy="19.064999"
   inkscape:window-x="0"
   inkscape:window-y="25"
   inkscape:window-maximized="0"
   inkscape:current-layer="Capa_1"
   fit-margin-top="0"
   fit-margin-left="0"
   fit-margin-right="0"
   fit-margin-bottom="0" />
<g
   id="g7571"
   style="fill:#00a4f5;fill-opacity:1"
   transform="matrix(0.51591822,0,0,0.51591822,0,-4.9345943)">
	<path
   id="path7569"
   style="fill:#00a4f5;fill-opacity:1;stroke-width:0.515918"
   transform="matrix(1.9382917,0,0,1.9382917,0,9.5646831)"
   d="m 42.023438,2.0664062 c -0.0344,0.020601 -0.06722,0.043758 -0.101563,0.064453 0.02927,0.014909 0.07466,0.089731 0.119141,0.1621094 0.0096,-0.00559 0.01778,-0.010211 0.02734,-0.015625 -0.01512,-0.072737 -0.02641,-0.140733 -0.04492,-0.2109376 z m -0.263672,0.1660157 c -0.08794,0.053565 -0.174258,0.1097266 -0.261719,0.1640625 0.0053,0.014226 0.01227,0.030735 0.01758,0.044922 0.114078,-0.072582 0.190042,-0.144308 0.244141,-0.2089843 z M 21.560547,2.4277344 c -0.40261,0.051076 -0.791643,0.2145497 -1.117188,0.484375 L 8.5273438,12.787109 H 2.1796875 C 0.97605029,12.787109 0,13.762644 0,14.966797 v 8.685547 c 0,1.203637 0.97605029,2.180719 2.1796875,2.179687 h 6.3476563 l 11.9160152,9.873047 c 0.398805,0.330704 0.892248,0.501953 1.390625,0.501953 0.31471,0 0.632114,-0.06722 0.927735,-0.207031 0.764591,-0.358563 1.251953,-1.127066 1.251953,-1.972656 l 0.002,-29.4355471 c 0,-0.8450741 -0.489831,-1.6140931 -1.253906,-1.9726563 C 22.379352,2.4385692 21.963157,2.3766591 21.560547,2.4277344 Z M 47.726562,15.527344 c 0.0016,0.336412 0.01583,0.641811 0.01172,0.980468 0.06812,0.394325 0.06845,0.816612 0.03906,1.246094 0.06117,0.04211 0.11982,0.08708 0.177734,0.132813 -0.04041,-0.792473 -0.121124,-1.578352 -0.228516,-2.359375 z m -2.58789,7.636718 c 0.04823,0.249939 0.09641,0.499952 0.144531,0.75 0.03829,-0.0613 0.08011,-0.128506 0.119141,-0.191406 -0.08825,-0.187696 -0.167733,-0.359285 -0.263672,-0.558594 z m -14.341797,6.748047 c -0.04171,0.01883 -0.08322,0.03794 -0.125,0.05664 l 0.02148,0.02148 c 0.0017,0.0017 0.0042,0.0022 0.0059,0.0039 0.03849,-0.02173 0.05697,-0.027 0.09766,-0.05078 3.47e-4,-0.01042 -3.38e-4,-0.02083 0,-0.03125 z m 13.017578,0.34375 c -0.01075,0.05208 -0.02372,0.104025 -0.0332,0.15625 0.01039,0.07129 0.01674,0.141977 0.02539,0.212891 0.003,-0.122979 0.0046,-0.246175 0.0078,-0.369141 z m -6.505859,5.183594 c -0.03455,0.318913 -0.0049,0.636836 0.09961,0.941406 -0.03421,-0.298165 -0.0697,-0.571809 -0.09961,-0.941406 z" />
</g>
<text
   xml:space="preserve"
   style="font-style:normal;font-weight:normal;font-size:40px;line-height:1.25;font-family:sans-serif;fill:#00a4f5;fill-opacity:1;stroke:none;"
   x="23.609573"
   y="29.748064"
   id="text8837"><tspan
     sodipodi:role="line"
     id="tspan8835"
     x="23.609573"
     y="29.748064">x</tspan></text></svg>
